<svg version="1.1" id="Layer_1" xmlns="http://www.w3.org/2000/svg" xmlns:xlink="http://www.w3.org/1999/xlink" x="0px" y="0px"
	 width="100%" viewBox="0 0 1024 1024" enable-background="new 0 0 1024 1024" xml:space="preserve">
<path fill="#000000" opacity="1.000000" stroke="none" 
	d="
M242.000000,322.046692 
	C268.992035,322.230896 295.483887,322.501038 321.976166,322.550812 
	C331.133362,322.567993 340.296631,322.145386 349.447388,321.715607 
	C354.833069,321.462677 359.186401,323.245300 362.834686,327.137726 
	C383.229523,348.897552 403.663849,370.620392 424.043640,392.394287 
	C427.349548,395.926331 430.619904,399.485962 434.440552,402.467041 
	C437.836365,405.116608 439.416443,408.437805 439.388916,412.809326 
	C439.284058,429.473969 439.324432,446.139771 439.369598,462.804962 
	C439.376617,465.395172 439.153809,467.834564 437.075195,469.646820 
	C432.556549,473.586578 428.092682,477.598175 423.423157,481.352478 
	C420.673889,483.562866 418.771088,482.582672 418.716248,478.949585 
	C418.582947,470.118896 418.859314,461.279022 418.590973,452.454376 
	C418.368866,445.148987 417.539551,437.863983 417.105164,430.562469 
	C416.862793,426.488892 414.710052,425.285736 410.873322,425.314911 
	C397.875549,425.413757 384.865692,425.593658 371.880096,425.157532 
	C358.732605,424.715942 348.560181,419.011322 342.931671,406.552094 
	C341.404083,403.170563 340.618164,399.676971 340.635101,395.920624 
	C340.699860,381.588898 340.650269,367.256561 340.605835,352.924561 
	C340.584351,346.001129 338.985992,344.412964 332.034210,344.360199 
	C287.547516,344.022552 243.060287,343.746002 198.574493,343.318695 
	C192.051147,343.256042 185.596466,343.839966 179.138672,344.423065 
	C170.022247,345.246246 164.481689,351.018219 163.172943,360.154144 
	C162.554855,364.468750 162.386536,368.768158 162.387482,373.102692 
	C162.397095,416.932434 161.848557,460.771149 162.568604,504.589050 
	C163.119080,538.087402 161.758408,571.552673 162.180573,605.037842 
	C162.327423,616.686279 161.512039,628.343750 161.391052,639.999756 
	C161.277756,650.915100 170.058304,660.278320 180.873581,661.820862 
	C188.025543,662.841003 195.162460,662.545166 202.312195,662.652405 
	C221.620728,662.942200 240.948303,661.913330 260.239868,663.614502 
	C263.351013,663.888916 265.868195,664.272034 266.263947,668.035217 
	C266.801758,673.148804 264.790100,677.866089 264.049774,682.778442 
	C263.790741,684.497131 262.073883,684.319275 260.783600,684.318054 
	C234.286530,684.293030 207.742905,685.203247 181.305695,683.922363 
	C155.677658,682.680725 140.635925,665.064697 140.664688,639.361023 
	C140.718201,591.531738 140.202286,543.691772 141.046890,495.876190 
	C141.841660,450.883057 141.826752,405.894653 141.422119,360.915497 
	C141.225128,339.018005 159.274490,325.233429 174.165970,321.555206 
	C180.206207,320.063293 186.062363,321.465637 192.011520,321.575378 
	C208.504959,321.879639 225.003479,321.908478 242.000000,322.046692 
M388.171539,386.324799 
	C379.777130,378.086792 373.084717,368.013245 362.776001,361.642700 
	C361.042114,363.728607 361.331451,365.457733 361.378754,367.071899 
	C361.539642,372.559601 362.173340,378.059021 361.957062,383.527496 
	C361.231659,401.873627 366.380859,404.317108 382.989136,403.679504 
	C389.224640,403.440125 395.477020,403.640717 403.094635,403.640717 
	C398.449158,396.569183 393.094727,392.080536 388.171539,386.324799 
z"/>
<path fill="#000000" opacity="1.000000" stroke="none" 
	d="
M695.065674,564.111267 
	C689.534973,560.916077 684.741516,557.408630 681.351318,552.440918 
	C681.351318,567.082092 681.334900,581.638916 681.359314,596.195740 
	C681.369324,602.185242 682.684937,608.093933 682.382080,614.124207 
	C682.235046,617.051697 681.207275,618.352051 678.210754,618.316345 
	C670.382629,618.223206 662.552368,618.219910 654.723938,618.291321 
	C651.411377,618.321594 649.711914,616.961365 649.810791,613.564209 
	C649.844727,612.399475 649.794067,611.232422 649.794067,610.066467 
	C649.794373,555.595154 649.795898,501.123810 649.797546,446.652466 
	C649.797546,445.986145 649.796448,445.319824 649.802307,444.653534 
	C649.879272,435.942505 650.163757,435.653625 658.721802,435.650970 
	C664.218933,435.649292 669.733276,435.925110 675.207947,435.575226 
	C679.987488,435.269806 682.052612,436.867859 681.376587,441.754303 
	C681.207825,442.974579 680.830811,444.393616 682.264587,445.985352 
	C686.647522,441.684021 691.516846,437.945709 697.298828,435.845856 
	C725.873413,425.468170 759.213684,435.009613 771.708923,467.130524 
	C781.504639,492.311951 780.604980,517.871094 767.601379,541.859619 
	C753.687378,567.527588 721.369995,577.091919 695.065674,564.111267 
M696.734253,464.186005 
	C689.178894,469.001556 684.601868,475.971863 682.458496,484.523315 
	C680.171875,493.646545 679.830200,502.849792 681.343750,512.208557 
	C683.850098,527.705261 695.592957,539.897705 709.204956,540.635559 
	C726.308411,541.562683 739.693909,531.693298 743.681519,515.108582 
	C745.564026,507.278870 745.569885,499.359161 744.665039,491.377777 
	C741.470764,463.201599 714.025146,454.106506 696.734253,464.186005 
z"/>
<path fill="#000000" opacity="1.000000" stroke="none" 
	d="
M593.878723,474.261200 
	C588.741516,463.911835 580.743896,459.548431 568.833984,460.325378 
	C559.186523,460.954742 550.422852,467.770416 547.308411,477.166901 
	C545.305847,483.208862 544.536194,489.496796 544.374939,495.805756 
	C543.835266,516.928833 542.471924,538.044434 544.240417,559.189392 
	C544.834045,566.287476 544.410950,566.330505 537.245911,566.341248 
	C531.083496,566.350464 524.905151,566.069275 518.764160,566.430847 
	C514.531250,566.680115 513.147522,564.589539 512.760803,561.042175 
	C512.617004,559.723206 512.666504,558.380615 512.666382,557.048828 
	C512.663391,518.908386 512.661865,480.767914 512.669861,442.627441 
	C512.671326,435.687134 512.690918,435.676300 519.573425,435.656738 
	C525.069580,435.641113 530.565857,435.641449 536.062012,435.661224 
	C542.443848,435.684174 542.440063,435.696655 542.303284,442.028625 
	C542.278931,443.156372 542.299805,444.285095 542.299805,446.059448 
	C546.754456,443.164185 550.147888,439.803467 554.254150,437.364502 
	C568.767822,428.743652 599.169739,430.862183 612.592651,442.179504 
	C621.900146,450.027008 626.331604,460.312347 627.175598,471.812866 
	C629.371033,501.728455 627.724854,531.735413 628.417969,561.695496 
	C628.496826,565.101807 627.355652,566.478394 623.837830,566.385254 
	C616.847595,566.200317 609.836243,566.079895 602.858154,566.426453 
	C598.105164,566.662537 596.514648,565.150146 596.565674,560.271362 
	C596.792053,538.621948 596.782471,516.967651 596.580566,495.317719 
	C596.515686,488.369415 596.317993,481.337891 593.878723,474.261200 
z"/>
<path fill="#000000" opacity="1.000000" stroke="none" 
	d="
M363.504456,562.504700 
	C384.142395,541.647278 404.565125,521.072754 424.891174,500.403137 
	C431.213562,493.973846 437.991821,488.067780 444.940247,482.363159 
	C452.104095,476.481659 458.461273,476.659790 465.599426,482.490936 
	C478.058136,492.668427 480.152466,506.822968 471.229553,520.034546 
	C468.227814,524.479126 464.596344,528.333679 460.867096,532.161194 
	C438.081451,555.547058 416.303864,579.864929 394.428009,604.094604 
	C386.057129,613.366211 377.612488,622.564148 369.556549,632.114929 
	C367.165009,634.950256 364.795532,634.824951 361.949402,632.156921 
	C351.992126,622.822571 341.820526,613.716980 331.735718,604.518616 
	C327.785522,600.915710 327.702820,597.016846 331.919617,592.898682 
	C342.288483,582.772339 352.798676,572.790771 363.504456,562.504700 
z"/>
<path fill="#000000" opacity="1.000000" stroke="none" 
	d="
M863.025452,504.957275 
	C876.391052,523.287903 889.553650,541.319153 902.698730,559.363159 
	C903.845215,560.936890 905.841675,562.440674 904.916504,564.594910 
	C903.950012,566.845459 901.483643,566.236877 899.563843,566.255127 
	C891.398682,566.332581 883.228699,566.169250 875.068481,566.388794 
	C871.620361,566.481506 869.639771,565.043640 867.740051,562.337219 
	C860.084229,551.430359 852.218445,540.670837 844.409668,529.871765 
	C843.459167,528.557190 842.384766,527.332397 840.916870,525.504395 
	C835.169434,533.644104 829.708557,541.343872 824.286194,549.070679 
	C821.224731,553.433228 818.157288,557.794739 815.232361,562.248596 
	C813.967896,564.174194 812.480835,565.768494 810.180115,565.924255 
	C799.228149,566.665894 788.276123,566.344788 777.474548,566.197693 
	C775.993225,562.559387 778.276855,560.613464 779.741211,558.564941 
	C792.722839,540.405029 805.662231,522.211975 818.918274,504.253265 
	C821.833984,500.303131 822.286926,497.726349 819.088318,493.539062 
	C806.753357,477.391632 794.866394,460.901093 782.885925,444.484833 
	C780.976990,441.869110 778.442749,439.443542 778.655334,435.851044 
	C779.847839,434.210968 781.474976,434.688324 782.886841,434.679626 
	C791.385620,434.627289 799.887634,434.776733 808.382690,434.590424 
	C811.590454,434.520050 813.617981,435.675934 815.410217,438.262665 
	C822.811157,448.943939 830.357300,459.524841 837.876221,470.124054 
	C841.514832,475.253235 842.147949,475.258362 845.919189,470.148285 
	C853.435181,459.964111 861.010254,449.821075 868.348938,439.510193 
	C870.420349,436.599884 872.722168,435.494019 876.255920,435.580292 
	C885.175964,435.798004 894.104858,435.652405 902.936340,435.652405 
	C903.442139,438.551971 901.834473,439.779785 900.830505,441.208282 
	C888.092163,459.332794 875.394775,477.487396 862.472900,495.480560 
	C859.966064,498.971191 859.803162,501.705688 863.025452,504.957275 
z"/>
<path fill="#000000" opacity="1.000000" stroke="none" 
	d="
M294.000061,469.700867 
	C317.641022,469.697632 340.782440,469.768951 363.922668,469.636322 
	C369.420593,469.604828 373.150909,471.599213 375.222412,476.770447 
	C377.961548,483.608368 374.835358,489.622467 367.559387,491.030396 
	C365.783051,491.374146 363.915741,491.325348 362.090210,491.325836 
	C312.811584,491.338745 263.532959,491.334351 214.254349,491.334076 
	C210.925079,491.334045 207.646515,491.028534 204.333267,490.540344 
	C198.856628,489.733429 196.670135,486.367584 196.176468,481.406464 
	C195.714920,476.768066 197.658798,473.344574 201.852737,471.266449 
	C204.606232,469.902008 207.553192,469.672180 210.592148,469.676605 
	C238.228073,469.716766 265.864075,469.700531 294.000061,469.700867 
z"/>
<path fill="#000000" opacity="1.000000" stroke="none" 
	d="
M440.152100,629.999268 
	C439.956909,636.653381 440.432800,642.816040 439.612823,648.965698 
	C437.416077,665.440979 425.260651,679.315002 409.223755,683.644226 
	C407.247223,684.177734 405.302643,684.335388 403.307770,684.335327 
	C382.313385,684.334656 361.319000,684.306519 340.324677,684.335449 
	C337.133026,684.339844 334.099304,683.813110 331.175323,682.621094 
	C330.754486,679.884583 332.851837,679.108948 334.453094,678.054565 
	C340.294281,674.208496 346.184143,670.436401 352.028503,666.595093 
	C355.183655,664.521301 358.551453,663.637878 362.379913,663.582642 
	C373.677002,663.419617 384.917145,662.584167 396.278961,663.436707 
	C407.969086,664.313782 418.591949,653.116150 418.639160,641.250977 
	C418.689545,628.587891 418.771301,615.922607 418.576508,603.262268 
	C418.520355,599.611877 419.628418,596.952881 422.229401,594.466187 
	C425.714294,591.134521 428.850220,587.439697 432.179291,583.942078 
	C433.635468,582.412109 434.813690,580.451233 438.308258,580.092834 
	C440.391907,596.543579 440.111084,613.031067 440.152100,629.999268 
z"/>
<path fill="#000000" opacity="1.000000" stroke="none" 
	d="
M283.113159,672.313049 
	C292.135162,651.486877 302.777832,631.939880 313.916992,612.639221 
	C315.657654,609.623291 317.404663,609.284302 320.366119,610.602722 
	C324.018616,612.228760 326.420807,615.243286 329.120789,617.883362 
	C336.846588,625.437744 344.410706,633.158142 352.004303,640.846863 
	C355.306335,644.190308 355.528900,647.341675 352.117920,649.737305 
	C332.646881,663.412231 312.539703,675.967163 289.612152,683.165283 
	C287.280304,683.897400 284.558685,685.559631 282.171783,682.941833 
	C279.793701,680.333740 281.211151,677.641602 282.021759,674.977478 
	C282.262787,674.185486 282.633270,673.432922 283.113159,672.313049 
z"/>
<path fill="#000000" opacity="1.000000" stroke="none" 
	d="
M201.140823,423.865631 
	C204.346115,422.063293 207.474396,421.807220 210.667068,421.815460 
	C239.322464,421.889465 267.978027,421.924896 296.633209,422.048767 
	C301.278351,422.068848 305.940369,422.260803 310.484894,423.472321 
	C314.663025,424.586243 317.142090,427.147308 317.310730,431.569153 
	C317.489197,436.247467 316.122803,440.093231 311.347839,442.009857 
	C308.666992,443.085907 305.913696,443.381500 303.045868,443.378021 
	C271.724152,443.340057 240.402069,443.286804 209.080811,443.411560 
	C203.921097,443.432129 199.962494,442.271149 197.845978,437.116272 
	C195.747589,432.005524 196.645126,427.705841 201.140823,423.865631 
z"/>
<path fill="#000000" opacity="1.000000" stroke="none" 
	d="
M275.000122,518.649048 
	C285.993622,518.651794 296.487213,518.625244 306.980560,518.668091 
	C313.673828,518.695374 317.664124,521.710266 318.120361,526.945251 
	C318.602264,532.474731 314.712189,537.662476 308.916809,538.868286 
	C306.825378,539.303284 304.613831,539.261719 302.456818,539.265137 
	C277.805511,539.304565 253.154022,539.262573 228.503006,539.357971 
	C222.014450,539.383118 215.521942,540.097961 209.040985,539.976501 
	C199.519058,539.798096 194.489426,532.768066 197.695007,524.684692 
	C199.476852,520.191528 202.913437,518.614685 207.541702,518.626160 
	C229.861053,518.681458 252.180603,518.649902 275.000122,518.649048 
z"/>
</svg>